<svg width="86" height="11" viewBox="0 0 86 11" fill="none" xmlns="http://www.w3.org/2000/svg">
<path d="M0 10.3651V0.5H3.4933C4.301 0.5 4.96399 0.631663 5.48226 0.89499C6.00053 1.15511 6.38419 1.51317 6.63323 1.96917C6.88227 2.42518 7.00679 2.9438 7.00679 3.52505C7.00679 4.10629 6.88227 4.62171 6.63323 5.07129C6.38419 5.52087 6.00222 5.87412 5.48731 6.13102C4.9724 6.38471 4.31446 6.51156 3.51349 6.51156H0.686545V5.43256H3.47311C4.02504 5.43256 4.46927 5.35549 4.80581 5.20135C5.14572 5.04721 5.39139 4.82884 5.54284 4.54624C5.69765 4.26044 5.77505 3.92004 5.77505 3.52505C5.77505 3.13006 5.69765 2.78484 5.54284 2.4894C5.38803 2.19396 5.14067 1.96596 4.80076 1.8054C4.46086 1.64162 4.01157 1.55973 3.45291 1.55973H1.25193V10.3651H0ZM4.86639 5.93353L7.41064 10.3651H5.95678L3.45291 5.93353H4.86639Z" fill="black"/>
<path d="M12.5047 10.3651V0.5H18.7441V1.55973H13.7566V4.89306H18.4211V5.95279H13.7566V9.3054H18.8249V10.3651H12.5047Z" fill="black"/>
<path d="M31.5403 3.78448C31.4293 3.46013 31.2829 3.16951 31.1011 2.91261C30.9228 2.65249 30.7091 2.43091 30.46 2.24787C30.2143 2.06482 29.935 1.92513 29.622 1.82879C29.309 1.73245 28.9658 1.68428 28.5922 1.68428C27.9797 1.68428 27.4227 1.83521 26.9213 2.13708C26.4198 2.43894 26.021 2.88371 25.7249 3.47137C25.4287 4.05904 25.2201 4.57836 25.2201 5.43256C25.2201 6.28677 25.3698 7.00771 25.6693 7.59538C25.9689 8.18304 26.3744 8.62781 26.8859 8.92967C27.3975 9.23153 27.973 9.38247 28.6124 9.38247C29.2047 9.38247 29.7264 9.26204 30.1773 9.02119C30.6316 8.77714 30.985 8.43353 31.2374 7.99037C31.4932 7.54399 31.6211 7.01895 31.6211 6.41522L32.0047 6.49229H28.8951V5.43256H32.8326V6.49229C32.8326 7.30475 32.6509 8.01124 32.2874 8.61175C31.9273 9.21227 31.4293 9.67791 30.7932 10.0087C30.1605 10.3362 29.4336 10.5 28.6124 10.5C27.697 10.5 26.8927 10.2945 26.1994 9.88343C25.5095 9.47238 24.971 8.88793 24.584 8.13006C24.2003 7.37219 24.0085 6.47303 24.0085 5.43256C24.0085 4.65222 24.1785 4.15217 24.3972 3.52918C24.6193 2.90297 24.9323 2.3699 25.3362 1.92995C25.74 1.49 26.2179 1.15281 26.7698 0.918387C27.3218 0.683962 27.9292 0.566749 28.5922 0.566749C29.1374 0.566749 29.6456 0.645426 30.1167 0.80278C30.5913 0.956923 31.0136 1.1769 31.3838 1.4627C31.7574 1.7453 32.0687 2.08409 32.3177 2.47908C32.5668 2.87086 32.7384 3.30599 32.8326 3.78448H31.5403Z" fill="black"/>
<path d="M38.3885 10.3651V0.5H44.628V1.55973H39.6405V4.89306H44.3049V5.95279H39.6405V9.3054H44.7088V10.3651H38.3885Z" fill="black"/>
<path d="M58.4944 0.5V10.3651H57.2829L51.6491 2.61946H51.5482V10.3651H50.2963V0.5H51.5078L57.1617 8.26493H57.2627V0.5H58.4944Z" fill="black"/>
<path d="M72.7306 3.71773H71.4786C71.4046 3.37412 71.275 3.07225 71.0899 2.81214C70.9082 2.55202 70.6861 2.33365 70.4236 2.15703C70.1644 1.9772 69.8767 1.84233 69.5603 1.75241C69.244 1.66249 68.9142 1.61753 68.5709 1.61753C67.9449 1.61753 67.3779 1.76847 66.8697 2.07033C66.3649 2.37219 65.9627 2.81696 65.6632 3.40462C65.367 3.99229 65.219 4.71323 65.219 5.43256C65.219 6.28677 65.367 7.00771 65.6632 7.59538C65.9627 8.18304 66.3649 8.62781 66.8697 8.92967C67.3779 9.23153 67.9449 9.38247 68.5709 9.38247C68.9142 9.38247 69.244 9.33751 69.5603 9.24759C69.8767 9.15767 70.1644 9.02441 70.4236 8.84778C70.6861 8.66795 70.9082 8.44798 71.0899 8.18786C71.275 7.92453 71.4046 7.62267 71.4786 7.28227H72.7306C72.6363 7.78645 72.4647 8.23764 72.2157 8.63584C71.9666 9.03404 71.657 9.37283 71.2868 9.65222C70.9166 9.92839 70.501 10.1387 70.0399 10.2832C69.5822 10.4277 69.0925 10.5 68.5709 10.5C67.6892 10.5 66.905 10.2945 66.2185 9.88343C65.5319 9.47238 64.9918 8.88793 64.598 8.13006C64.2043 7.37219 64.0074 6.47303 64.0074 5.43256C64.0074 4.52698 64.2043 3.62781 64.598 2.86994C64.9918 2.11207 65.5319 1.52762 66.2185 1.11657C66.905 0.705524 67.6892 0.5 68.5709 0.5C69.0925 0.5 69.5822 0.572254 70.0399 0.716763C70.501 0.861272 70.9166 1.07322 71.2868 1.3526C71.657 1.62877 71.9666 1.96596 72.2157 2.36416C72.4647 2.75915 72.6363 3.21034 72.7306 3.71773Z" fill="black"/>
<path d="M77.2768 0.5H78.7105L81.5778 5.10501H81.699L84.5663 0.5H86L82.2644 6.29961V10.3651H81.0125V6.29961L77.2768 0.5Z" fill="black"/>
</svg>
